<svg xmlns="http://www.w3.org/2000/svg" viewBox="508 34 68 10" fill="white"><path d="m 535.344,35.729 -2.22,0 -1.437,6.271 -1.448,-6.271 -2.22,0 -2.075,8.173 1.858,0 1.345,-5.924 1.424,5.924 2.245,0 1.399,-5.924 1.334,5.924 1.857,0 -2.062,-8.173"/><path d="m 523.209,38.501 c -0.341,-0.882 -1.032,-1.376 -1.998,-1.376 -0.966,0 -1.657,0.494 -1.998,1.376 -0.332,0.857 -0.323,1.959 0.016,2.664 0.378,0.784 1.016,1.306 1.982,1.306 0.966,0 1.604,-0.522 1.981,-1.306 0.34,-0.705 0.349,-1.807 0.017,-2.664 z m 1.836,2.989 c -0.393,1.219 -1.626,2.592 -3.834,2.592 -2.208,0 -3.441,-1.373 -3.834,-2.592 -0.336,-1.042 -0.298,-2.416 -0.013,-3.34 0.448,-1.452 1.85,-2.636 3.847,-2.636 1.997,0 3.399,1.184 3.847,2.636 0.285,0.924 0.323,2.298 -0.013,3.34"/><path d="m 510.166,37.324 1.634,0 c 1.005,0 1.528,0.592 1.86,1.276 0.305,0.629 0.359,1.665 0.037,2.431 -0.308,0.733 -0.922,1.276 -1.859,1.276 l -1.672,0 0,-4.983 z m 1.851,6.578 c 1.947,0 3.017,-1.179 3.409,-2.251 0.396,-1.082 0.501,-2.469 0,-3.726 -0.501,-1.259 -1.648,-2.196 -3.279,-2.196 l -3.8,0 0,8.173 3.67,0"/><path d="m 541.035,34.345 c 0.216,0.274 0.765,1.392 0.765,2.32 0,0.926 0.006,7.237 0.006,7.237 l 1.82,0 c 0,0 0.005,-6.244 0.004,-7.519 0,-1.477 -0.563,-1.888 -1.055,-2.632 l -1.54,0.594"/><path d="m 573.653,35.564 c -0.865,0 -2.092,0.225 -2.731,0.577 l 0.347,1.608 c 0.724,-0.341 1.639,-0.586 2.23,-0.586 0.899,0 1.349,0.329 1.349,0.807 0,0.369 -0.487,0.708 -1.756,1.272 -1.385,0.616 -2.098,1.392 -2.098,2.454 0,1.365 0.936,2.388 3.047,2.388 0.749,0 1.704,-0.196 2.485,-0.472 l -0.346,-1.608 c -0.611,0.256 -1.247,0.467 -2.049,0.467 -0.782,0 -1.266,-0.289 -1.266,-0.797 0,-0.346 0.486,-0.693 1.525,-1.143 1.62,-0.703 2.303,-1.542 2.303,-2.594 0,-1.393 -1.066,-2.373 -3.04,-2.373"/><path d="m 551.548,39.737 c -0.013,-0.423 -0.093,-0.853 -0.241,-1.235 -0.341,-0.882 -1.032,-1.376 -1.998,-1.376 -0.691,0 -1.24,0.253 -1.622,0.72 -0.555,-0.327 -1.061,-0.651 -1.521,-0.967 0.695,-0.812 1.78,-1.364 3.143,-1.364 1.997,0 3.399,1.184 3.847,2.636 0.193,0.625 0.272,1.456 0.2,2.251 -0.633,-0.212 -1.235,-0.434 -1.808,-0.665"/><path d="m 553.356,40.401 c -0.035,0.38 -0.104,0.752 -0.213,1.089 -0.393,1.219 -1.625,2.592 -3.834,2.592 -2.208,0 -3.44,-1.373 -3.834,-2.592 -0.336,-1.042 -0.298,-2.416 -0.013,-3.34 0.142,-0.461 0.382,-0.894 0.705,-1.272 0.46,0.316 0.966,0.641 1.521,0.967 -0.153,0.186 -0.279,0.405 -0.377,0.656 -0.331,0.857 -0.322,1.959 0.017,2.664 0.377,0.784 1.015,1.306 1.981,1.306 0.967,0 1.605,-0.522 1.982,-1.306 0.188,-0.391 0.274,-0.903 0.257,-1.429 0.573,0.231 1.175,0.454 1.808,0.665"/><path d="m 560.226,41.953 0.005,-3.979 -1.92,3.684 c -0.552,-0.099 -1.088,-0.208 -1.608,-0.326 l 3.068,-5.604 2.278,0 0,6.419 c -0.624,-0.052 -1.232,-0.118 -1.823,-0.194 z m -5.343,-6.225 1.818,0 0,5.604 c -0.629,-0.142 -1.235,-0.296 -1.818,-0.461 l 0,-5.143"/><path d="m 554.883,43.901 0,-3.03 c 0.583,0.165 1.189,0.319 1.818,0.461 l 0,0.004 10e-4,-10e-4 10e-4,-0.003 c 0.52,0.118 1.056,0.227 1.608,0.326 l -1.169,2.243 -2.259,0 z m 5.341,0 0.002,-1.948 c 0.592,0.077 1.199,0.142 1.824,0.194 l 0,1.754 -1.826,0"/><path d="m 564.049,43.901 0,-1.632 c 0.593,0.023 1.197,0.037 1.818,0.037 l 3.646,0 0,1.595 -5.464,0"/><path d="m 565.866,37.323 0,1.841 3.088,0 0.001,1.583 -3.087,0 -0.002,1.559 c -0.62,0 -1.225,-0.014 -1.817,-0.037 l 0,-6.541 5.477,0 -0.013,1.595 -3.647,0"/></svg>