<svg xmlns="http://www.w3.org/2000/svg" viewBox="0 0 246 32" fill="white"><path d="M0 5.6h5.2v21.2H0z"/><path d="M10.4 10.4h4.8v2.4c1.2-1.8 3-3 5.6-3 3.8 0 6.2 2.6 6.2 7v10h-5.2v-9c0-2.4-1-3.6-2.8-3.6-2 0-3.4 1.4-3.4 3.8v8.8h-5.2z"/><path d="M30 10.4h5l4 12.4 4-12.4h5L41.6 26.8h-5.2z"/><path d="M51.2 19.6c0-5 3.4-8.8 8.4-8.8 5.2 0 8.2 3.8 8.2 9.2v1.2H56.4c.4 2.2 1.8 3.4 4 3.4 1.6 0 2.8-.6 3.6-1.8h4.8c-1.2 3.4-4.2 5.4-8.4 5.4-5.4 0-9.2-3.6-9.2-8.6zm11.6-2c-.2-2-1.6-3.2-3.4-3.2-1.8 0-3.2 1.2-3.6 3.2h7z"/><path d="M71.2 22.4c0-3.6 2.8-5.2 7.2-5.6l4-.4v-.4c0-1.6-1-2.6-3-2.6-1.8 0-2.8.8-3.2 2.2H71.6c.4-3.8 3.6-5.8 8-5.8 4.8 0 7.8 2.4 7.8 6.8v10.2h-4.8v-2.2c-1.2 1.6-3 2.6-5.4 2.6-3.6 0-6-2-6-4.8zm11.2-1.4v-1l-3.4.4c-2 .2-3 1-3 2.2s1 2 2.6 2c2.2 0 3.8-1.4 3.8-3.6z"/><path d="M92 22.8h5c.2 1.2 1.4 2 3.2 2 1.6 0 2.6-.6 2.6-1.6 0-1.2-1.4-1.6-3.6-2.2-3.2-.8-6.2-1.8-6.2-5.4 0-3.4 3-5.6 7.2-5.6 4.4 0 7 2 7.4 5.2h-4.8c-.2-1-1.2-1.8-2.8-1.8-1.4 0-2.2.6-2.2 1.4 0 1 1.2 1.4 3.4 2 3.2.8 6.4 1.8 6.4 5.6 0 3.6-3.2 5.8-7.6 5.8-4.6 0-7.6-2.2-8-5.4z"/><path d="M111.2 5.6h5.2v5.2h3.2v3.8h-3.2v7.4c0 1.4.6 2 1.8 2h1.6v3.2c-.8.2-1.8.4-3 .4-3.6 0-5.6-1.6-5.6-5.2v-7.8h-2.4v-3.8h2.4z"/><path d="M122 5.6h5.2v3.8H122zm0 4.8h5.2v16.4H122z"/><path d="M132.4 10.4h4.8v2.4c1.2-1.8 3-3 5.6-3 3.8 0 6.2 2.6 6.2 7v10h-5.2v-9c0-2.4-1-3.6-2.8-3.6-2 0-3.4 1.4-3.4 3.8v8.8h-5.2z"/><path d="M153.2 28.4c1.2 1 2.8 1.6 4.4 1.6 2.6 0 4.2-1.2 4.2-3.8v-1.4c-1 1.4-2.6 2.2-4.6 2.2-4 0-7.2-3.2-7.2-8s3.2-8.2 7.2-8.2c2 0 3.6.8 4.6 2.2v-1.8h5.2v14.6c0 5.4-3.6 8.6-9.4 8.6-2.4 0-4.6-.6-6.4-1.8l2-4.2zm8.8-9.6c0-2.6-1.4-4.2-3.6-4.2s-3.6 1.6-3.6 4.2 1.4 4.2 3.6 4.2 3.6-1.6 3.6-4.2z"/><path d="M169.6 25.6c0-1.8 1.4-3.2 3.2-3.2s3.2 1.4 3.2 3.2-1.4 3.2-3.2 3.2-3.2-1.4-3.2-3.2z"/><path d="M180 18.6c0-5 3.4-8.8 8.2-8.8 3.2 0 5.6 1.6 6.8 4.2h-5.2c-.6-.8-1.4-1.2-2.4-1.2-2 0-3.4 1.8-3.4 4.4v2.8c0 2.6 1.4 4.4 3.4 4.4 1 0 1.8-.4 2.4-1.2h5.2c-1.2 2.6-3.6 4.2-6.8 4.2-4.8 0-8.2-3.8-8.2-8.8z"/><path d="M198.4 18.6c0-5 3.6-8.8 8.6-8.8s8.6 3.8 8.6 8.8-3.6 8.8-8.6 8.8-8.6-3.8-8.6-8.8zm12 1.4v-2.8c0-2.6-1.4-4.4-3.4-4.4s-3.4 1.8-3.4 4.4v2.8c0 2.6 1.4 4.4 3.4 4.4s3.4-1.8 3.4-4.4z"/><path d="M220 10.4h4.8v2.4c1-1.6 2.8-2.8 5.2-2.8 2.4 0 4 1 5 2.8 1.2-1.8 3-2.8 5.4-2.8 3.6 0 5.8 2.6 5.8 7v10h-5.2v-9c0-2.4-.8-3.6-2.6-3.6-1.8 0-3 1.4-3 3.8v8.8h-5.2v-9c0-2.4-.8-3.6-2.6-3.6-1.8 0-3 1.4-3 3.8v8.8H220z"/></svg>