<svg xmlns="http://www.w3.org/2000/svg" viewBox="93 -44 155 30" fill="white"><path d="M114.12-17.99h-4.125c-.37 0-.508-.342-.675-.674l-4.867-8.193h-.747a138.85 138.85 0 0 1-4.39-.139v8.332c0 .37-.273.674-.646.674h-3.378a.678.678 0 0 1-.674-.674v-22.143c0-.678.4-.914 1.08-1.014 1.76-.27 5.537-.438 8.007-.438 5.202 0 10.008 1.86 10.008 7.636v.305c0 3.578-1.8 5.536-4.56 6.61l5.3 9.043c.07.102.07.197.07.273a.37.37 0 0 1-.404.401zm-5.07-16.633c0-2.534-1.966-3.614-5.345-3.614-.712 0-3.786.067-4.4.133v7.328a188.71 188.71 0 0 0 4.39.102c3.476 0 5.345-.672 5.345-3.644zm14.482 9.977c0 2.834.11 2.908 2.664 2.908h8.553a.68.68 0 0 1 .678.676v2.158c0 .477-.17.646-.678.71-1.08.17-3.28.47-7.3.47-5.608 0-8.584.04-8.584-6.924v-10.7c0-6.96 2.976-6.922 8.584-6.922 4.018 0 6.22.305 7.3.472.508.065.678.237.678.71v2.16c0 .37-.305.68-.678.68h-8.553c-2.555 0-2.664.075-2.664 2.9v3.1h10.813a.68.68 0 0 1 .677.672v2.44a.681.681 0 0 1-.677.675h-10.813zm27.065 6.924c-5.435 0-10.118-2.363-10.118-9.564v-14.06c0-.375.31-.644.68-.644h3.34c.375 0 .677.27.677.644v14.06c0 3.854 1.78 5.682 5.423 5.682 3.652 0 5.432-1.828 5.432-5.682v-14.06c0-.375.302-.644.673-.644h3.344c.375 0 .68.27.68.644v14.06c-.002 7.2-4.687 9.564-10.13 9.564zm32.344-20.35h-6.74v19.41a.685.685 0 0 1-.684.674h-3.344a.68.68 0 0 1-.677-.674v-19.41h-6.745c-.367 0-.672-.232-.672-.604v-2.67c0-.375.305-.644.672-.644h18.19c.365 0 .67.27.67.644v2.67c.001.372-.303.604-.67.604zm45.883 20.083H224.7c-.37 0-.504-.342-.672-.674l-4.87-8.193h-.754c-.873 0-3.607-.096-4.39-.14v8.332c0 .37-.268.674-.637.674h-3.375a.679.679 0 0 1-.678-.674v-22.143c0-.678.4-.914 1.078-1.014 1.756-.27 5.54-.438 8-.438 5.207 0 10 1.86 10 7.636v.305c0 3.578-1.793 5.536-4.562 6.61l5.31 9.043a.448.448 0 0 1 .068.273.37.37 0 0 1-.406.401zm-5.068-16.633c0-2.534-1.967-3.614-5.352-3.614-.705 0-3.78.067-4.39.133v7.328c.547.033 3.824.102 4.39.102 3.486 0 5.352-.672 5.352-3.644zm17.963 16.916c-2.986 0-6.012-.512-7.637-.885-.334-.068-.64-.303-.64-.674V-21.7c0-.37.307-.643.64-.643h.066c1.355.17 4.518.61 7.64.61 3.004 0 3.924-1.076 3.924-3.033 0-2.535-6.05-3.938-9.002-5.154-2.94-1.216-3.98-3.544-3.98-5.906 0-3.72 2.992-6.422 9.275-6.422 3.22 0 6.17.612 7.318.888.34.068.605.305.605.64v2.5c0 .334-.23.607-.574.607h-.064c-2.232-.2-4.545-.612-7.482-.612-2.504 0-4.377.878-4.377 2.398 0 1.112 1.27 2.133 2.77 2.73l5.715 2.26c2.846 1.15 4.69 2.828 4.69 6.07-.001 3.4-2.128 7.06-8.89 7.06zm-49.967-6.94c0 2.834.105 2.908 2.666 2.908h8.56a.68.68 0 0 1 .67.676v2.158c0 .477-.17.646-.67.71-1.088.17-3.285.47-7.303.47-5.62 0-8.588.04-8.588-6.924v-10.7c0-6.96 2.97-6.922 8.588-6.922 4.018 0 6.215.305 7.303.472.5.065.67.237.67.71v2.16c0 .37-.307.68-.67.68h-8.56c-2.56 0-2.666.075-2.666 2.9v3.1h10.814a.67.67 0 0 1 .67.672v2.44a.673.673 0 0 1-.67.675h-10.814z"/></svg>