<svg xmlns="http://www.w3.org/2000/svg" viewBox="0 0 137.1 29.8" fill="white"><rect width="137.1" height="3.2"/><path d="M15.6,23.4c0,0.9-0.1,1.7-0.5,2.4c-0.3,0.7-0.7,1.2-1.2,1.7c-0.8,0.8-1.7,1.3-2.7,1.6c-1.1,0.3-2.2,0.5-3.4,0.5c-1,0-2.1-0.1-3.1-0.5s-1.9-0.8-2.7-1.6c-0.6-0.5-1.1-1.2-1.5-2C0.2,24.9,0,24,0,23.1h3.6c0,0.5,0.1,0.9,0.3,1.3c0.2,0.4,0.4,0.8,0.7,1.1c0.4,0.4,0.9,0.7,1.5,0.8c0.6,0.1,1.2,0.2,1.7,0.2c0.7,0,1.3-0.1,1.9-0.2c0.6-0.1,1.1-0.4,1.5-0.8c0.2-0.2,0.4-0.5,0.6-0.8c0.1-0.3,0.2-0.6,0.2-1.1c0-0.7-0.2-1.2-0.7-1.6c-0.5-0.4-1-0.6-1.6-0.7c-0.7-0.1-1.4-0.2-2.2-0.3S6.1,20.9,5.4,20.8c-0.7-0.1-1.3-0.3-1.9-0.6c-0.6-0.3-1.1-0.6-1.6-1.1c-0.5-0.5-0.8-1-1.1-1.6c-0.3-0.6-0.4-1.4-0.4-2.1c0-0.8,0.2-1.5,0.5-2.1s0.7-1.2,1.2-1.7c0.6-0.6,1.5-1.1,2.5-1.5c1-0.4,2.1-0.6,3.2-0.6c1,0,2,0.2,3,0.5c1,0.3,1.8,0.8,2.4,1.4c0.6,0.6,1.1,1.2,1.4,1.9c0.4,0.7,0.5,1.5,0.6,2.3h-3.6c0-0.3-0.1-0.7-0.3-1c-0.2-0.3-0.3-0.6-0.6-0.9c-0.3-0.3-0.8-0.6-1.3-0.8c-0.6-0.2-1.1-0.3-1.6-0.3c-0.6,0-1.1,0.1-1.7,0.2c-0.6,0.1-1.1,0.4-1.5,0.8c-0.2,0.2-0.4,0.5-0.5,0.7c-0.1,0.3-0.2,0.6-0.2,0.9c0,0.6,0.2,1.1,0.6,1.5c0.4,0.3,0.8,0.6,1.4,0.7c0.6,0.1,1.3,0.2,2.1,0.2c0.8,0.1,1.5,0.2,2.1,0.2c0.7,0.1,1.4,0.3,2.1,0.6c0.7,0.3,1.2,0.7,1.7,1.1c0.5,0.5,0.9,1,1.1,1.7C15.5,21.9,15.6,22.6,15.6,23.4"/><path d="M30.9,29.3l-1.4-1.5c-0.8,0.7-1.6,1.2-2.6,1.5c-0.9,0.3-1.9,0.5-2.9,0.5c-0.9,0-1.7-0.1-2.5-0.4c-0.8-0.3-1.5-0.7-2.1-1.2c-0.6-0.5-1.1-1.1-1.4-1.9c-0.3-0.7-0.5-1.6-0.5-2.5c0-1.2,0.3-2.2,0.9-3.1c0.6-0.9,1.5-1.6,2.5-2.2c-0.3-0.3-0.6-0.7-0.8-1c-0.3-0.3-0.5-0.7-0.7-1c-0.2-0.3-0.3-0.7-0.4-1c-0.1-0.4-0.1-0.8-0.1-1.2c0-0.8,0.1-1.5,0.4-2.1c0.3-0.6,0.7-1.1,1.1-1.6c0.5-0.4,1-0.8,1.7-1c0.7-0.2,1.3-0.3,2.1-0.3c0.7,0,1.4,0.1,2,0.3c0.7,0.2,1.2,0.5,1.7,0.9c0.5,0.4,0.9,0.9,1.2,1.5c0.3,0.6,0.4,1.3,0.4,2c0,0.6-0.1,1.2-0.3,1.7c-0.2,0.5-0.4,1-0.8,1.4c-0.3,0.4-0.7,0.8-1.2,1.1c-0.5,0.3-0.9,0.7-1.5,1l3.4,3.7c0.2-0.3,0.3-0.7,0.3-1.1s0.1-0.8,0.1-1.3c0-0.4,0.1-0.9,0.1-1.3V18.3h5v2.7h-2.2c0,0.8-0.1,1.5-0.3,2.3c-0.2,0.8-0.5,1.4-0.9,2.1l3.6,3.9H30.9z M23.1,20.6c-0.3,0.2-0.6,0.4-0.9,0.6c-0.3,0.2-0.5,0.4-0.7,0.6c-0.2,0.2-0.4,0.5-0.5,0.8c-0.1,0.3-0.2,0.7-0.2,1.1c0,0.5,0.1,0.9,0.3,1.3c0.2,0.4,0.5,0.7,0.8,1c0.3,0.3,0.7,0.5,1.1,0.6c0.4,0.1,0.9,0.2,1.3,0.2c0.6,0,1.2-0.1,1.8-0.2s1.1-0.5,1.5-1L23.1,20.6z M26.5,14.3c0-0.7-0.2-1.2-0.6-1.6c-0.4-0.4-0.9-0.6-1.6-0.6c-0.6,0-1.1,0.2-1.5,0.5c-0.4,0.3-0.7,0.8-0.7,1.5c0,0.3,0.1,0.6,0.2,0.9c0.1,0.3,0.3,0.5,0.4,0.8c0.2,0.2,0.4,0.5,0.6,0.7c0.2,0.2,0.4,0.4,0.6,0.6c0.3-0.2,0.6-0.3,0.9-0.5c0.3-0.2,0.6-0.4,0.8-0.6c0.2-0.2,0.4-0.5,0.6-0.8C26.4,15.1,26.5,14.7,26.5,14.3"/><path d="M52.2,16c0,0.9-0.1,1.8-0.4,2.5c-0.3,0.8-0.7,1.4-1.3,2c-0.6,0.6-1.3,1-2.1,1.3c-0.9,0.3-1.9,0.5-3,0.5h-4.1v7h-3.5V9.8h7.6c1.1,0,2.1,0.1,3,0.5c0.9,0.3,1.6,0.7,2.1,1.3c0.6,0.5,1,1.2,1.3,2S52.2,15.1,52.2,16 M48.6,16c0-0.9-0.3-1.7-0.8-2.3c-0.6-0.6-1.4-0.9-2.6-0.9h-4v6.3h4c1.2,0,2.1-0.3,2.6-0.9C48.4,17.7,48.6,17,48.6,16"/><path d="M73.1,29.2l-0.4-2.1c-0.1,0.3-0.4,0.6-0.7,0.9c-0.3,0.3-0.7,0.6-1.1,0.8s-0.9,0.4-1.4,0.6c-0.5,0.1-1.1,0.2-1.7,0.2c-1.1,0-2.2-0.1-3.2-0.5c-1-0.3-1.9-0.9-2.6-1.7c-0.5-0.5-0.9-1.1-1.2-1.7c-0.3-0.6-0.6-1.2-0.8-1.9c-0.2-0.7-0.3-1.4-0.4-2.1c-0.1-0.7-0.1-1.5-0.1-2.3c0-0.8,0-1.5,0.1-2.3c0.1-0.7,0.2-1.4,0.4-2c0.2-0.6,0.4-1.2,0.8-1.8c0.3-0.6,0.8-1.1,1.3-1.7c0.8-0.8,1.6-1.3,2.7-1.7c1-0.4,2.1-0.6,3.1-0.6c1.2,0,2.3,0.2,3.3,0.6c1,0.4,1.8,0.9,2.5,1.6c0.5,0.5,0.9,1.1,1.2,1.7c0.3,0.6,0.5,1.4,0.6,2.2h-3.6c0-0.4-0.1-0.7-0.3-1c-0.2-0.3-0.3-0.5-0.6-0.8c-0.7-0.8-1.7-1.2-3.1-1.2c-0.6,0-1.1,0.1-1.7,0.3c-0.6,0.2-1.1,0.6-1.5,1c-0.3,0.3-0.6,0.8-0.8,1.2c-0.2,0.5-0.4,0.9-0.5,1.4c-0.1,0.5-0.2,1-0.2,1.5c0,0.50,10,1.4c0,0.4,0,0.9,0.1,1.4c0,0.5,0.1,1,0.2,1.6c0.1,0.5,0.3,1,0.5,1.5c0.2,0.5,0.5,0.9,0.8,1.2c0.4,0.4,0.9,0.7,1.4,0.9c0.6,0.2,1.1,0.3,1.7,0.3c0.6,0,1.2-0.1,1.7-0.3c0.5-0.2,0.9-0.5,1.2-0.8c0.5-0.6,0.9-1.1,1-1.7c0.1-0.6,0.2-1.3,0.2-2h-4.6v-2.9h8.1v10.7H73.1z"/><path d="M84,29.2c-0.3,0.1-0.6,0.1-0.8,0.1c-0.1,0-0.4,0-0.8,0c-1.2,0-2.1-0.3-2.8-0.9c-0.7-0.6-1.1-1.6-1.1-2.9V9.4h3.5v15.6c0,0.4,0.1,0.8,0.2,1s0.5,0.4,1.1,0.4c0.1,0,0.3,0.30s0.10,0.20V29.2z"/><path d="M98.5,22.1c0,1.2-0.1,2.2-0.4,3c-0.3,0.8-0.7,1.6-1.2,2.2c-0.5,0.6-1.2,1.1-2,1.6c-0.9,0.4-1.9,0.7-3,0.7s-2.1-0.2-3-0.7c-0.9-0.4-1.6-1-2-1.6c-0.5-0.7-0.9-1.4-1.2-2.2c-0.3-0.8-0.4-1.8-0.4-3s0.1-2.2,0.4-3c0.3-0.8,0.7-1.6,1.2-2.2c0.5-0.6,1.2-1.1,2-1.6c0.9-0.4,1.9-0.7,3-0.7s2.1,0.2,3,0.7c0.9,0.4,1.6,1,2,1.6c0.5,0.7,0.9,1.4,1.2,2.2C98.4,19.9,98.5,20.9,98.5,22.1 M95,22.1c0-0.7-0.1-1.3-0.2-2c-0.1-0.6-0.4-1.2-0.8-1.6c-0.2-0.3-0.5-0.5-0.9-0.7s-0.8-0.3-1.3-0.3c-0.5,0-0.9,0.1-1.3,0.3s-0.7,0.4-0.9,0.7c-0.4,0.5-0.7,1-0.8,1.6c-0.1,0.6-0.2,1.3-0.2,2s0.1,1.3,0.2,2c0.1,0.6,0.4,1.2,0.8,1.6c0.2,0.3,0.5,0.5,0.9,0.7c0.4,0.2,0.8,0.3,1.3,0.3c0.5,0,0.9-0.1,1.3-0.3c0.4-0.2,0.7-0.4,0.9-0.7c0.4-0.5,0.7-1,0.8-1.6C95,23.4,95,22.8,95,22.1"/><path d="M114.3,22.1c0,1.4-0.2,2.6-0.6,3.6c-0.4,1.1-1.1,1.9-1.9,2.6c-0.4,0.4-0.9,0.7-1.5,0.9c-0.6,0.2-1.2,0.3-1.9,0.3c-0.8,0-1.6-0.1-2.3-0.5c-0.7-0.3-1.3-0.8-1.7-1.4l-0.2,1.6h-3V9.4h3.4v6.6c0.3-0.4,0.8-0.7,1.5-1c0.7-0.3,1.4-0.4,2.3-0.4c0.7,0,1.4,0.1,2,0.3c0.6,0.2,1.1,0.5,1.5,0.8C113.5,17.2,114.3,19.3,114.3,22.1 M110.9,22.1c0-0.6-0.1-1.2-0.2-1.8c-0.1-0.6-0.4-1.1-0.7-1.6c-0.3-0.3-0.6-0.6-0.9-0.8c-0.4-0.2-0.8-0.3-1.4-0.3c-0.7,0-1.2,0.1-1.6,0.4c-0.4,0.3-0.8,0.7-1,1.1c-0.2,0.5-0.4,0.9-0.5,1.5c-0.1,0.5-0.1,1.1-0.1,1.6c0,0.7,0.1,1.4,0.2,2.1c0.2,0.7,0.5,1.3,1,1.8c0.2,0.2,0.5,0.4,0.8,0.5c0.3,0.1,0.7,0.2,1.1,0.2c0.5,0,1-0.1,1.4-0.3c0.4-0.2,0.7-0.5,0.9-0.8c0.4-0.5,0.6-1,0.7-1.6C110.8,23.3,110.9,22.7,110.9,22.1"/><path d="M129.6,29.1c-0.3,0.1-0.6,0.2-0.8,0.3c-0.2,0.1-0.5,0.1-0.9,0.1c-0.8,0-1.3-0.2-1.7-0.6c-0.4-0.4-0.6-0.9-0.7-1.4c-0.3,0.6-0.9,1.1-1.6,1.5c-0.8,0.4-1.7,0.6-2.7,0.6c-0.9,0-1.6-0.1-2.2-0.4s-1.2-0.6-1.6-1c-0.4-0.4-0.8-0.9-1-1.4c-0.2-0.5-0.3-1.1-0.3-1.7c0-0.7,0.1-1.3,0.4-1.8c0.2-0.5,0.6-1,1-1.4c0.4-0.4,0.9-0.7,1.5-0.9c0.6-0.2,1.2-0.3,1.9-0.4l4.2-0.3V19.5c0-0.7-0.2-1.2-0.5-1.6c-0.3-0.4-1-0.6-1.9-0.6c-0.8,0-1.4,0.2-1.9,0.5c-0.5,0.3-0.7,0.8-0.7,1.5h-3.3c0.1-0.8,0.2-1.5,0.6-2.1c0.3-0.6,0.8-1.1,1.3-1.4c0.5-0.4,1.1-0.7,1.8-0.8c0.7-0.2,1.4-0.3,2.2-0.3c1.2,0,2.3,0.2,3.3,0.7c1,0.4,1.6,1.2,2.1,2.3c0.2,0.5,0.3,0.9,0.3,1.4c0,0.5,0.1,1,0.1,1.5v5.3c0,0.3,0.1,0.6,0.2,0.7c0.1,0.1,0.3,0.2,0.6,0.2c0.1,0,0.2,0.30c0.1,0,0.1,0.10V29.1z M125,22.9l-3.6,0.3c-0.5,0-1,0.2-1.4,0.5c-0.4,0.3-0.6,0.8-0.6,1.4c0,0.6,0.2,1,0.6,1.3s0.9,0.5,1.4,0.5c1.1,0,2-0.3,2.6-0.8c0.7-0.6,1-1.4,1-2.4V22.9z"/><path d="M137.1,29.2c-0.3,0.1-0.6,0.1-0.8,0.1c-0.1,0-0.4,0-0.8,0c-1.2,0-2.1-0.3-2.8-0.9c-0.7-0.6-1.1-1.6-1.1-2.9V9.4h3.5v15.6c0,0.4,0.1,0.8,0.2,1s0.5,0.4,1.1,0.4c0.1,0,0.3,0.30c0.1,0.10,0.20V29.2z"/></svg>